#!OML:ASF X:\für Bonn\!DataBase\2005_08_10_Bjorn_Final\c3d\bjorn.ASF
:FULLY-SPECIFIED
:DEGREES
178
root 0.948165 19.759 0.134376 -177.832 -6.26623 -180.85
lowerback -3.01921 0.657212 3.72596
upperback 4.81787 0.507623 -0.385131
thorax 6.76351 0.384416 -2.45458
lowerneck -1.61283 -2.19085 -1.41412
upperneck 11.9206 -3.26599 -1.00618
head 4.19254 -1.91647 -0.236616
rclavicle 1.1281e-014 1.0138e-014
rhumerus 73.623 0.451789 -78.6159
rradius 5.67985
rwrist 56.0846
rhand -12.8575 7.59238
rfingers 7.12502
rthumb 13.2306 -21.9677
lclavicle 1.1281e-014 1.0138e-014
lhumerus 73.6286 -10.3304 75.4908
lradius 7.36262
lwrist -59.7891
lhand -16.9873 -6.78181
lfingers 7.12502
lthumb 9.24759 22.9954
rfemur 171.118 -165.53 -166.603
rtibia 30.3656
rfoot -8.21112 10.9089
rtoes -22.6549
lfemur -10.1717 7.99839 -15.09
ltibia 30.1521
lfoot -2.07129 -11.9767
ltoes -3.0648
179
root 0.956956 19.6584 0.111607 -178.183 -6.32999 -180.807
lowerback -3.01227 0.633384 3.67679
upperback 4.92552 0.472789 -0.445079
thorax 6.87204 0.366676 -2.49322
lowerneck -1.91664 -2.21167 -1.33444
upperneck 12.1817 -3.29617 -1.0328
head 4.34532 -1.93345 -0.269895
rclavicle -1.75427e-014 -6.75868e-015
rhumerus 73.8009 0.452015 -78.7021
rradius 5.78475
rwrist 55.8008
rhand -12.7607 7.48279
rfingers 7.12502
rthumb 13.3238 -22.0713
lclavicle -1.75427e-014 -6.75868e-015
lhumerus 74.0765 -10.2725 75.1436
lradius 7.47489
lwrist -59.364
lhand -16.6839 -7.04817
lfingers 7.12502
lthumb 9.54035 22.7158
rfemur 171.814 -165.386 -166.581
rtibia 30.3699
rfoot -10.1938 11.0712
rtoes -22.9168
lfemur -9.66012 7.97015 -15.0332
ltibia 30.3918
lfoot -4.0749 -12.1886
ltoes -3.21275
180
root 0.965534 19.5688 0.0964839 -178.272 -6.40269 -180.807
lowerback -3.19888 0.597779 3.58523
upperback 4.96411 0.426642 -0.49963
thorax 7.01728 0.344132 -2.50262
lowerneck -2.29953 -2.22933 -1.26581
upperneck 12.4394 -3.31387 -1.08562
head 4.51349 -1.94443 -0.311137
rclavicle 1.78906e-014 8.74653e-015
rhumerus 74.0345 0.483203 -78.7609
rradius 5.80138
rwrist 55.5214
rhand -12.7197 7.42371
rfingers 7.12502
rthumb 13.3634 -22.1277
lclavicle 1.78906e-014 8.74653e-015
lhumerus 74.4886 -10.182 74.8247
lradius 7.59352
lwrist -58.9077
lhand -16.4601 -7.27538
lfingers 7.12502
lthumb 9.75628 22.4786
rfemur 172.156 -165.341 -166.507
rtibia 30.397
rfoot -12.0809 10.9905
rtoes -23.0075
lfemur -9.52224 8.01332 -15.0765
ltibia 30.6872
lfoot -5.90286 -12.3156
ltoes -3.43859
181
root 0.97422 19.4842 0.0879436 -178.183 -6.44949 -180.884
lowerback -3.52578 0.583669 3.41541
upperback 4.97289 0.416285 -0.570833
thorax 7.21368 0.337902 -2.48187
lowerneck -2.67612 -2.24501 -1.20393
upperneck 12.6794 -3.33209 -1.09758
head 4.67618 -1.95307 -0.337459
rclavicle 1.46604e-014 -4.77083e-015
rhumerus 74.2523 0.481252 -78.7945
rradius 5.85177
rwrist 55.1769
rhand -12.6483 7.36147
rfingers 7.12502
rthumb 13.4322 -22.1855
lclavicle 1.46604e-014 -4.77083e-015
lhumerus 74.8899 -10.1402 74.5357
lradius 7.70994
lwrist -58.4895
lhand -16.3835 -7.54228
lfingers 7.12502
lthumb 9.83015 22.2083
rfemur 172.246 -165.517 -166.449
rtibia 30.439
rfoot -13.7835 10.7526
rtoes -22.4846
lfemur -9.64955 7.99432 -15.2507
ltibia 31.0417
lfoot -7.54756 -12.2567
ltoes -3.48977
182
root 0.982879 19.4056 0.0842313 -177.959 -6.49607 -180.999
lowerback -3.94078 0.565093 3.22141
upperback 4.93611 0.406823 -0.662425
thorax 7.4127 0.332538 -2.46871
lowerneck -2.92247 -2.26574 -1.13841
upperneck 12.8371 -3.36203 -1.09039
head 4.78337 -1.96545 -0.355092
rclavicle 7.70291e-015 3.37934e-015
rhumerus 74.4403 0.477274 -78.8385
rradius 5.87603
rwrist 54.8928
rhand -12.5533 7.29103
rfingers 7.12502
rthumb 13.5238 -22.2498
lclavicle 7.70291e-015 3.37934e-015
lhumerus 75.237 -10.1089 74.2368
lradius 7.81623
lwrist -58.139
lhand -16.4431 -7.81018
lfingers 7.12502
lthumb 9.77264 21.9431
rfemur 172.153 -165.984 -166.359
rtibia 30.4891
rfoot -15.3596 10.2755
rtoes -21.482
lfemur -9.98326 7.98087 -15.493
ltibia 31.4389
lfoot -9.01038 -12.0892
ltoes -3.65135
183
root 0.990173 19.3335 0.0845709 -177.667 -6.53607 -181.022
lowerback -4.42462 0.555186 3.11737
upperback 4.90551 0.399319 -0.718397
thorax 7.66025 0.332701 -2.46867
lowerneck -3.09404 -2.2822 -1.0944
upperneck 12.9204 -3.38736 -1.05032
head 4.84923 -1.97323 -0.355009
rclavicle 2.48481e-015 1.39149e-015
rhumerus 74.6502 0.467731 -78.8604
rradius 5.91271
rwrist 54.5976
rhand -12.4391 7.21076
rfingers 7.12502
rthumb 13.6338 -22.3227
lclavicle 2.48481e-015 1.39149e-015
lhumerus 75.6057 -10.0844 73.9615
lradius 7.87304
lwrist -57.8681
lhand -16.6741 -8.00541
lfingers 7.12502
lthumb 9.54977 21.7582
rfemur 171.926 -166.553 -166.148
rtibia 30.5274
rfoot -16.733 9.75033
rtoes -20.2013
lfemur -10.4532 7.94663 -15.6537
ltibia 31.8726
lfoot -10.3909 -11.8039
ltoes -4.06179
184
root 0.997841 19.2677 0.087443 -177.351 -6.5763 -181.009
lowerback -4.91091 0.537037 3.03798
upperback 4.86709 0.378433 -0.748866
thorax 7.90055 0.326587 -2.45746
lowerneck -3.10918 -2.28188 -1.02861
upperneck 12.8711 -3.38705 -1.04204
head 4.8328 -1.96706 -0.363119
rclavicle 4.96962e-017 -2.78299e-015
rhumerus 74.8258 0.484962 -78.8621
rradius 5.96629
rwrist 54.2621
rhand -12.2779 7.14258
rfingers 7.12502
rthumb 13.7892 -22.3804
lclavicle 4.96962e-017 -2.78299e-015
lhumerus 75.7882 -10.0881 73.7196
lradius 8.03273
lwrist -57.6343
lhand -17.0474 -8.12213
lfingers 7.12502
lthumb 9.18965 21.6576
rfemur 171.641 -167.192 -165.887
rtibia 30.562
rfoot -17.9505 9.22442
rtoes -18.767
lfemur -10.9724 7.85477 -15.7753
ltibia 32.3134
lfoot -11.6628 -11.4284
ltoes -4.71116
185
root 1.00523 19.2075 0.0904121 -177.046 -6.58334 -180.974
lowerback -5.37752 0.544432 2.99313
upperback 4.83182 0.389019 -0.773716
thorax 8.13586 0.33722 -2.45632
lowerneck -2.93084 -2.29786 -1.01717
upperneck 12.7029 -3.41498 -0.964132
head 4.73549 -1.97294 -0.333988
rclavicle -1.23246e-014 1.49089e-015
rhumerus 74.923 0.503564 -78.8587
rradius 6.0521
rwrist 53.9062
rhand -12.1093 7.08772
rfingers 7.12502
rthumb 13.9517 -22.4242
lclavicle -1.23246e-014 1.49089e-015
lhumerus 75.7572 -10.2021 73.517
lradius 8.31978
lwrist -57.5168
lhand -17.5506 -8.12541
lfingers 7.12502
lthumb 8.70407 21.6751
rfemur 171.324 -167.795 -165.621
rtibia 30.615
rfoot -19.0214 8.72422
rtoes -17.6532
lfemur -11.461 7.75051 -15.8628
ltibia 32.7246
lfoot -12.8199 -11.0225
ltoes -5.3484
186
root 1.01109 19.1546 0.094185 -176.819 -6.59766 -180.886
lowerback -5.67819 0.541668 3.00854
upperback 4.83189 0.378468 -0.770308
thorax 8.3118 0.337478 -2.46236
lowerneck -3.03564 -2.30031 -1.00171
upperneck 12.6911 -3.41599 -0.922297
head 4.75299 -1.96776 -0.32417
rclavicle -7.15625e-015 -1.03368e-014
rhumerus 75.0061 0.523839 -78.8229
rradius 6.18641
rwrist 53.5246
rhand -11.9349 7.08188
rfingers 7.12502
rthumb 14.1197 -22.4184
lclavicle -7.15625e-015 -1.03368e-014
lhumerus 75.7814 -10.2699 73.3253
lradius 8.54873
lwrist -57.4468
lhand -18.036 -8.04571
lfingers 7.12502
lthumb 8.23557 21.7738
rfemur 171.047 -168.364 -165.334
rtibia 30.6997
rfoot -19.967 8.24139
rtoes -16.8746
lfemur -11.8429 7.59552 -15.8778
ltibia 33.0673
lfoot -13.8921 -10.5638
ltoes -6.11704
187
root 1.01633 19.1089 0.102018 -176.704 -6.59264 -180.773
lowerback -5.70098 0.548633 3.09113
upperback 4.82697 0.380664 -0.779996
thorax 8.32142 0.344129 -2.51879
lowerneck -3.28793 -2.30822 -0.967781
upperneck 12.7499 -3.42153 -0.887935
head 4.82623 -1.96393 -0.324134
rclavicle 4.99446e-015 -2.98177e-016
rhumerus 74.9879 0.573142 -78.8222
rradius 6.35239
rwrist 53.1509
rhand -11.7642 7.08686
rfingers 7.12502
rthumb 14.2842 -22.4018
lclavicle 4.99446e-015 -2.98177e-016
lhumerus 75.803 -10.3913 73.1367
lradius 8.70385
lwrist -57.477
lhand -18.5246 -7.9127
lfingers 7.12502
lthumb 7.76405 21.9248
rfemur 170.83 -168.795 -165.077
rtibia 30.824
rfoot -20.7067 7.88293
rtoes -16.1888
lfemur -12.07 7.30595 -15.8531
ltibia 33.3174
lfoot -14.8305 -10.0202
ltoes -6.7918
188
root 1.02087 19.0722 0.119005 -176.718 -6.57673 -180.66
lowerback -5.47527 0.554783 3.17795
upperback 4.85347 0.382695 -0.777683
thorax 8.21928 0.346704 -2.56538
lowerneck -3.51354 -2.31248 -0.952583
upperneck 12.773 -3.4206 -0.84563
head 4.88156 -1.95656 -0.316649
rclavicle 1.62382e-014 -6.65929e-015
rhumerus 74.9192 0.6083 -78.7841
rradius 6.54789
rwrist 52.6898
rhand -11.657 7.20779
rfingers 7.12502
rthumb 14.3875 -22.2736
lclavicle 1.62382e-014 -6.65929e-015
lhumerus 75.8514 -10.4855 72.9622
lradius 8.78219
lwrist -57.4961
lhand -18.91 -7.75949
lfingers 7.12502
lthumb 7.39205 22.0914
rfemur 170.692 -169.103 -164.872
rtibia 30.9812
rfoot -21.3007 7.61614
rtoes -15.9079
lfemur -12.1567 7.08825 -15.798
ltibia 33.4753
lfoot -15.5857 -9.58554
ltoes -7.09768
189
root 1.02447 19.0432 0.136271 -176.823 -6.56054 -180.547
lowerback -5.13839 0.549081 3.25628
upperback 4.90726 0.367991 -0.75011
thorax 8.08005 0.337865 -2.58285
lowerneck -3.67524 -2.31711 -1.01377
upperneck 12.753 -3.41679 -0.787499
head 4.9098 -1.95044 -0.288248
rclavicle -1.25856e-014 -1.49089e-015
rhumerus 74.8052 0.701477 -78.719
rradius 6.75197
rwrist 52.2935
rhand -11.5989 7.32531
rfingers 7.12502
rthumb 14.4435 -22.1521
lclavicle -1.25856e-014 -1.49089e-015
lhumerus 75.8817 -10.5457 72.8253
lradius 8.84857
lwrist -57.4527
lhand -19.0985 -7.60424
lfingers 7.12502
lthumb 7.21011 22.2529
rfemur 170.622 -169.247 -164.716
rtibia 31.1778
rfoot -21.7432 7.4958
rtoes -15.7404
lfemur -12.1201 6.83151 -15.7269
ltibia 33.5453
lfoot -16.2226 -9.17783
ltoes -7.39689
